<svg xmlns="http://www.w3.org/2000/svg" width="640" height="360" viewBox="0 0 640 360" role="img" aria-label="Kabel HDMI">
  <defs>
    <linearGradient id="bg" x1="0" x2="1" y1="0" y2="1">
      <stop offset="0" stop-color="#f8fafc"/>
      <stop offset="1" stop-color="#e2e8f0"/>
    </linearGradient>
    <linearGradient id="cable" x1="0" x2="1" y1="0" y2="0">
      <stop offset="0" stop-color="#111827"/>
      <stop offset="1" stop-color="#1f2937"/>
    </linearGradient>
  </defs>

  <rect width="640" height="360" fill="url(#bg)"/>

  <g fill="none" stroke="url(#cable)" stroke-width="20" stroke-linecap="round">
    <path d="M120 230c0-70 60-120 140-120h100c80 0 140 50 140 120"/>
    <path d="M150 250c0-58 48-98 110-98h120c62 0 110 40 110 98"/>
    <path d="M180 270c0-42 38-74 90-74h100c52 0 90 32 90 74"/>
  </g>

  <g>
    <rect x="86" y="250" width="64" height="36" rx="8" fill="#111827"/>
    <rect x="490" y="250" width="64" height="36" rx="8" fill="#111827"/>

    <rect x="70" y="260" width="24" height="16" rx="3" fill="#dc2626"/>
    <rect x="546" y="260" width="24" height="16" rx="3" fill="#dc2626"/>

    <rect x="64" y="263" width="8" height="10" fill="#9ca3af"/>
    <rect x="570" y="263" width="8" height="10" fill="#9ca3af"/>
  </g>

  <text x="50%" y="52" text-anchor="middle" fill="#334155" font-family="Arial, sans-serif" font-size="30" font-weight="700">Kabel HDMI</text>
</svg>
